<?xml version="1.0" encoding="UTF-8"?>
<svg version="1.1" xmlns="http://www.w3.org/2000/svg" width="522" height="221">
<path d="M0 0 C172.26 0 344.52 0 522 0 C522 72.93 522 145.86 522 221 C349.74 221 177.48 221 0 221 C0 148.07 0 75.14 0 0 Z " fill="#FDFDFD" transform="translate(0,0)"/>
<path d="M0 0 C0.99 0.33 1.98 0.66 3 1 C5.87438548 1.15413876 8.72898986 1.25747285 11.60546875 1.31640625 C12.86427605 1.3475779 12.86427605 1.3475779 14.14851379 1.37937927 C16.82809294 1.44474018 19.50776969 1.50369714 22.1875 1.5625 C24.00456737 1.60569802 25.82162488 1.64931273 27.63867188 1.69335938 C32.09234799 1.8004078 36.54612226 1.90171319 41 2 C41.99 3.98 42.98 5.96 44 8 C32.12 8 20.24 8 8 8 C9.32 9.98 10.64 11.96 12 14 C12 14.66 12 15.32 12 16 C13.13542236 15.97381592 14.27084473 15.94763184 15.44067383 15.9206543 C19.65043456 15.83020223 23.86010937 15.77276956 28.07055664 15.7253418 C29.89329467 15.70018603 31.71593172 15.66605715 33.53833008 15.62280273 C36.15731693 15.56219454 38.77497153 15.53380239 41.39453125 15.51171875 C42.21025101 15.48591232 43.02597076 15.4601059 43.8664093 15.43351746 C46.17114258 15.43237305 46.17114258 15.43237305 50 16 C51.485 18.475 51.485 18.475 53 21 C41.12 21 29.24 21 17 21 C20.84238582 29.21400728 20.84238582 29.21400728 26.0559082 30 C27.6370172 30.04037239 29.21961632 30.0381187 30.80078125 30 C32.0553437 30.0163147 32.0553437 30.0163147 33.33525085 30.03295898 C35.99565333 30.05906864 38.65220135 30.03030994 41.3125 30 C43.12046257 30.00809366 44.92841289 30.01977252 46.73632812 30.03515625 C51.15848706 30.06497362 55.57800166 30.04560394 60 30 C60.99 32.475 60.99 32.475 62 35 C50.12 35 38.24 35 26 35 C30.0015269 42.25692385 30.0015269 42.25692385 35.0559082 42.88647461 C36.63702202 42.92700418 38.21939574 42.93033366 39.80078125 42.90234375 C40.63715622 42.91463516 41.47353119 42.92692657 42.33525085 42.93959045 C44.9952313 42.97127446 47.65243399 42.95505899 50.3125 42.9375 C52.12046843 42.95061178 53.92841705 42.96685303 55.73632812 42.98632812 C60.15814336 43.02714265 64.57808697 43.02501834 69 43 C69.99 44.98 70.98 46.96 72 49 C60.12 49 48.24 49 36 49 C37.32 51.31 38.64 53.62 40 56 C43.19948053 56.67607653 45.40750914 56.86844931 48.59765625 56.76171875 C49.42833115 56.76452347 50.25900604 56.76732819 51.11485291 56.7702179 C53.76538804 56.77549515 56.41242254 56.73487864 59.0625 56.6875 C61.71560069 56.65602131 64.36756519 56.63471901 67.02085876 56.63691711 C68.67037607 56.63678698 70.32004128 56.61646 71.9690094 56.57389832 C77.5215749 56.55254503 77.5215749 56.55254503 80.02905273 58.89770508 C81 61 81 61 81 63 C63.675 63.495 63.675 63.495 46 64 C49.15191338 68.66894892 49.15191338 68.66894892 52.31176758 73.33251953 C52.71032959 73.92661621 53.1088916 74.52071289 53.51953125 75.1328125 C53.92276611 75.72980957 54.32600098 76.32680664 54.74145508 76.94189453 C56.32639754 79.5337597 57.64133833 82.28267667 59 85 C20.72 85 -17.56 85 -57 85 C-52 76 -52 76 -43 63 C-54.22 63 -65.44 63 -77 63 C-75 58 -75 58 -74 57 C-71.38228394 56.92646544 -68.78543319 56.91184586 -66.16796875 56.9296875 C-64.54881738 56.92110157 -62.92967514 56.91062501 -61.31054688 56.8984375 C-58.74890167 56.88174126 -56.18928383 56.87498231 -53.62768555 56.90039062 C-51.16067305 56.92135606 -48.6973071 56.8981225 -46.23046875 56.8671875 C-45.46679489 56.88457977 -44.70312103 56.90197205 -43.91630554 56.91989136 C-41.45551479 56.9381707 -41.45551479 56.9381707 -38 56 C-36.68 53.69 -35.36 51.38 -34 49 C-45.22 49 -56.44 49 -68 49 C-67.01 47.02 -66.02 45.04 -65 43 C-63.93563721 43.00636475 -62.87127441 43.01272949 -61.7746582 43.01928711 C-57.81380088 43.03375137 -53.8543894 43.00233804 -49.89379883 42.95727539 C-48.18193488 42.94416076 -46.46992916 42.94337859 -44.75805664 42.95532227 C-42.29171945 42.97036527 -39.82929785 42.94061582 -37.36328125 42.90234375 C-36.60163162 42.91659897 -35.83998199 42.93085419 -35.05525208 42.94554138 C-32.56525379 42.9497844 -32.56525379 42.9497844 -29 42 C-27.35 39.69 -25.7 37.38 -24 35 C-35.22 35 -46.44 35 -58 35 C-57.34 33.35 -56.68 31.7 -56 30 C-54.93563721 30.01160156 -53.87127441 30.02320313 -52.7746582 30.03515625 C-48.81378536 30.06776465 -44.85459762 30.04780461 -40.89379883 30.01220703 C-39.18189274 30.00411138 -37.46985776 30.01014746 -35.75805664 30.03076172 C-33.29142984 30.0579856 -30.82973445 30.03387231 -28.36328125 30 C-27.22080681 30.02912476 -27.22080681 30.02912476 -26.05525208 30.05883789 C-23.5583919 30.07304391 -23.5583919 30.07304391 -20 29 C-18.35 26.36 -16.7 23.72 -15 21 C-26.22 21 -37.44 21 -49 21 C-48.01 19.35 -47.02 17.7 -46 16 C-43.07880063 15.54512166 -40.74486333 15.41434505 -37.83203125 15.51171875 C-36.63981209 15.52233086 -36.63981209 15.52233086 -35.42350769 15.53315735 C-32.88554639 15.56114126 -30.34979393 15.6238816 -27.8125 15.6875 C-26.09182875 15.71257795 -24.3711229 15.73539201 -22.65039062 15.75585938 C-18.43274303 15.81098033 -14.21674593 15.89727588 -10 16 C-9.71125 15.236875 -9.4225 14.47375 -9.125 13.6875 C-8 11 -8 11 -6 8 C-17.22 8 -28.44 8 -40 8 C-39 6 -38 4 -37 2 C-35.91468994 1.97494385 -34.82937988 1.9498877 -33.71118164 1.92407227 C-29.698684 1.83016245 -25.68636618 1.72990233 -21.67407227 1.62768555 C-19.93485712 1.58427427 -18.19559765 1.54260388 -16.45629883 1.50268555 C-13.96161512 1.44513232 -11.4671559 1.3813958 -8.97265625 1.31640625 C-8.19036148 1.29969376 -7.40806671 1.28298126 -6.60206604 1.26576233 C-3.00128219 1.49351269 -3.00128219 1.49351269 0 0 Z " fill="#060606" transform="translate(135,99)"/>
<path d="M0 0 C4.13260274 2.4412968 6.54261258 4.66619313 8.671875 9.05859375 C9.48139834 14.411658 9.58364959 20.13137451 7.109375 25.05859375 C3.53056534 29.46328256 0.54410062 31.65364334 -5.015625 32.4375 C-10.95405349 32.68762403 -14.76257435 32.17872483 -19.328125 28.05859375 C-23.86484819 23.031414 -24.68628604 19.16723577 -24.609375 12.5625 C-24.05558153 7.63219978 -21.31189492 4.94638612 -17.765625 1.74609375 C-12.60164163 -1.82897166 -5.82935283 -2.35717119 0 0 Z " fill="#0A0A0A" transform="translate(455.328125,120.94140625)"/>
<path d="M0 0 C3.3 0 6.6 0 10 0 C10.96380382 2.18522816 11.92109439 4.37295386 12.875 6.5625 C13.14441406 7.17158203 13.41382813 7.78066406 13.69140625 8.40820312 C15.48625009 12.54509929 16.84414021 16.64027642 18 21 C18.66 21 19.32 21 20 21 C20.391875 19.7625 20.78375 18.525 21.1875 17.25 C23.13881177 11.36792078 25.56246179 5.69401218 28 0 C30.97 0 33.94 0 37 0 C37 10.89 37 21.78 37 33 C34.69 33 32.38 33 30 33 C29.67 27.06 29.34 21.12 29 15 C27.02 20.94 25.04 26.88 23 33 C20.69 33 18.38 33 16 33 C15.20788071 31.10435574 14.41632424 29.20847629 13.625 27.3125 C13.18414062 26.25675781 12.74328125 25.20101562 12.2890625 24.11328125 C11.17268415 21.41705839 10.08379399 18.70948499 9 16 C8.67 21.61 8.34 27.22 8 33 C5.36 33 2.72 33 0 33 C0 22.11 0 11.22 0 0 Z " fill="#0D0D0D" transform="translate(308,120)"/>
<path d="M0 0 C2.64 0 5.28 0 8 0 C8 4.29 8 8.58 8 13 C12.29 13 16.58 13 21 13 C21 8.71 21 4.42 21 0 C23.64 0 26.28 0 29 0 C29 10.89 29 21.78 29 33 C26.36 33 23.72 33 21 33 C21 28.38 21 23.76 21 19 C16.71 19 12.42 19 8 19 C8 23.62 8 28.24 8 33 C5.36 33 2.72 33 0 33 C0 22.11 0 11.22 0 0 Z " fill="#0B0B0B" transform="translate(279,54)"/>
<path d="M0 0 C4.41140177 2.20570089 7.22130155 4.93882534 10 9 C10 9.66 10 10.32 10 11 C7.03 11 4.06 11 1 11 C1 10.34 1 9.68 1 9 C-0.41303238 8.7493981 -1.83079474 8.52538079 -3.25 8.3125 C-4.43335938 8.12107422 -4.43335938 8.12107422 -5.640625 7.92578125 C-8.73889581 8.02324341 -9.87853882 8.76386525 -12 11 C-13.01838255 15.4853761 -12.80092834 19.70619268 -10.375 23.625 C-7.31163508 25.39852706 -5.48634568 25.51924297 -2 25 C-1.54109375 24.49984375 -1.0821875 23.9996875 -0.609375 23.484375 C1 22 1 22 3.26171875 21.70703125 C4.06222656 21.74183594 4.86273438 21.77664062 5.6875 21.8125 C6.49574219 21.83957031 7.30398438 21.86664063 8.13671875 21.89453125 C8.75160156 21.92933594 9.36648438 21.96414062 10 22 C9.07862913 26.05403182 8.38548724 27.69653132 5.0625 30.3125 C-0.29312016 33.26355601 -4.98487371 33.67564601 -11 33 C-15.43519354 30.78240323 -18.25326056 28.10287022 -21 24 C-21.96332757 17.94378624 -21.87419426 12.02813069 -19.4375 6.375 C-13.49469087 0.58457059 -8.23356956 -1.34731138 0 0 Z " fill="#0A0A0A" transform="translate(417,120)"/>
<path d="M0 0 C3.40122775 1.8120706 6.04985175 3.84205503 7.91015625 7.234375 C7.91015625 8.224375 7.91015625 9.214375 7.91015625 10.234375 C0.37719956 10.61102283 0.37719956 10.61102283 -2.02734375 8.671875 C-5.44429323 6.29036475 -9.15185843 7.53597162 -13.08984375 8.234375 C-14.44073537 12.28704987 -14.63286271 15.99729746 -14.08984375 20.234375 C-12.64969449 22.92576043 -12.64969449 22.92576043 -10.08984375 24.234375 C-7.08984375 24.81770833 -7.08984375 24.81770833 -4.08984375 24.234375 C-3.47109375 23.739375 -2.85234375 23.244375 -2.21484375 22.734375 C1.07684904 20.41082715 3.94533493 21.03613393 7.91015625 21.234375 C7.68596686 25.15768934 6.95063533 26.19565588 4.03515625 28.984375 C-1.12581214 32.70027224 -5.9022357 32.92939494 -12.08984375 32.234375 C-17.40549533 29.57654921 -21.19220383 25.92729475 -23.08984375 20.234375 C-23.81838055 13.4028496 -23.35905624 8.70772435 -19.08984375 3.234375 C-13.37118559 -1.22617836 -6.98548068 -2.55916675 0 0 Z " fill="#080808" transform="translate(373.08984375,120.765625)"/>
<path d="M0 0 C3.5625 1.625 3.5625 1.625 6 4 C6.875 7.25 6.875 7.25 7 10 C4.03 10 1.06 10 -2 10 C-2 9.01 -2 8.02 -2 7 C-3.65 7 -5.3 7 -7 7 C-7 8.32 -7 9.64 -7 11 C-6.15695312 11.40992188 -5.31390625 11.81984375 -4.4453125 12.2421875 C-2.80175781 13.05042969 -2.80175781 13.05042969 -1.125 13.875 C-0.03445313 14.40867188 1.05609375 14.94234375 2.1796875 15.4921875 C5 17 5 17 7 19 C7.45993557 23.67601163 7.67058528 25.91318937 5.1875 29.9375 C1.35262841 33.55323607 -2.54886951 33.27373603 -7.5546875 33.22265625 C-10.71713392 32.93470186 -12.58034071 32.04158753 -15 30 C-17 27 -17 27 -17 23 C-15.72125 22.938125 -14.4425 22.87625 -13.125 22.8125 C-12.04605469 22.76029297 -12.04605469 22.76029297 -10.9453125 22.70703125 C-10.30335938 22.80371094 -9.66140625 22.90039062 -9 23 C-8.34 23.99 -7.68 24.98 -7 26 C-4.41619823 26.25030977 -4.41619823 26.25030977 -2 26 C-2 24.68 -2 23.36 -2 22 C-2.83144531 21.68546875 -3.66289062 21.3709375 -4.51953125 21.046875 C-5.60621094 20.61890625 -6.69289063 20.1909375 -7.8125 19.75 C-9.43091797 19.12351563 -9.43091797 19.12351563 -11.08203125 18.484375 C-14.10328812 16.94745718 -15.36094324 15.92568834 -17 13 C-17.5 9.5625 -17.5 9.5625 -17 6 C-11.9061575 -0.1662304 -7.69700579 -0.83688731 0 0 Z " fill="#090909" transform="translate(296,120)"/>
<path d="M0 0 C6.93 0 13.86 0 21 0 C21 2.31 21 4.62 21 7 C17.04 7 13.08 7 9 7 C9 8.98 9 10.96 9 13 C12.3 13 15.6 13 19 13 C19 14.98 19 16.96 19 19 C15.37 19 11.74 19 8 19 C8 21.64 8 24.28 8 27 C11.96 27 15.92 27 20 27 C20 28.98 20 30.96 20 33 C13.4 33 6.8 33 0 33 C0 22.11 0 11.22 0 0 Z " fill="#0F0F0F" transform="translate(313,54)"/>
<path d="M0 0 C7.59 0 15.18 0 23 0 C23 8.99858181 23 8.99858181 20.62890625 11.9921875 C20.13712891 12.63414062 19.64535156 13.27609375 19.13867188 13.9375 C18.61853516 14.576875 18.09839844 15.21625 17.5625 15.875 C16.54227348 17.18435439 15.52271022 18.49422593 14.50390625 19.8046875 C14.04830322 20.37171387 13.5927002 20.93874023 13.12329102 21.52294922 C11.91271803 23.02001629 11.91271803 23.02001629 11 25 C15.29 25.33 19.58 25.66 24 26 C24 28.31 24 30.62 24 33 C16.08 33 8.16 33 0 33 C0 25.12585401 0 25.12585401 2.3359375 22.140625 C2.82320312 21.49996094 3.31046875 20.85929687 3.8125 20.19921875 C4.328125 19.55597656 4.84375 18.91273438 5.375 18.25 C6.38291158 16.94278472 7.39072772 15.63549585 8.3984375 14.328125 C8.84880371 13.7599707 9.29916992 13.19181641 9.76318359 12.60644531 C10.9080303 11.11945532 11.95902217 9.56146674 13 8 C8.71 7.67 4.42 7.34 0 7 C0 4.69 0 2.38 0 0 Z " fill="#0F0F0F" transform="translate(251,120)"/>
<path d="M0 0 C8.58 0 17.16 0 26 0 C26 2.31 26 4.62 26 7 C23.03 7 20.06 7 17 7 C17 15.58 17 24.16 17 33 C14.36 33 11.72 33 9 33 C9 24.42 9 15.84 9 7 C6.03 7 3.06 7 0 7 C0 4.69 0 2.38 0 0 Z " fill="#0F0F0F" transform="translate(250,54)"/>
<path d="M0 0 C1.51864906 0.00188828 1.51864906 0.00188828 3.06797791 0.0038147 C4.21919632 -0.00864288 5.37041473 -0.02110046 6.55651855 -0.03393555 C7.79514145 -0.01551605 9.03376434 0.00290344 10.30992126 0.0218811 C11.58451706 0.02088409 12.85911285 0.01988708 14.17233276 0.01885986 C16.867619 0.02354274 19.55976169 0.03983323 22.25450134 0.07608032 C25.70729049 0.12150506 29.15833083 0.12253398 32.61133671 0.10904503 C35.90683009 0.10075506 39.20201283 0.12470647 42.49742126 0.1468811 C43.73806839 0.14505829 44.97871552 0.14323547 46.25695801 0.14135742 C47.40502426 0.16042145 48.55309052 0.17948547 49.73594666 0.1991272 C50.74758377 0.20834198 51.75922089 0.21755676 52.80151367 0.22705078 C55.33726501 0.7484436 55.33726501 0.7484436 57.18734741 2.65777588 C58.33726501 4.7484436 58.33726501 4.7484436 58.33726501 6.7484436 C36.88726501 6.7484436 15.43726501 6.7484436 -6.66273499 6.7484436 C-2.66273499 0.7484436 -2.66273499 0.7484436 0 0 Z " fill="#1D1D1D" transform="translate(110.66273498535156,86.25155639648438)"/>
<path d="M0 0 C2.97 0 5.94 0 9 0 C9 10.89 9 21.78 9 33 C6.69 33 4.38 33 2 33 C1.67 27.06 1.34 21.12 1 15 C0.01 17.97 -0.98 20.94 -2 24 C-3.98 23.67 -5.96 23.34 -8 23 C-7.46585373 17.27485473 -5.83951338 12.76131311 -3.4375 7.5625 C-3.10814453 6.83095703 -2.77878906 6.09941406 -2.43945312 5.34570312 C-1.63422894 3.56020601 -0.81822154 1.77957845 0 0 Z " fill="#060606" transform="translate(336,120)"/>
<path d="M0 0 C3.07504636 2.02822207 4.66581629 3.49753176 5.48046875 7.16015625 C5.74203371 11.39468093 5.34599732 13.48624641 2.9375 17.0625 C-0.74654649 19.492403 -2.66536242 19.70930433 -7 19 C-9.36497439 17.13291495 -10.66030715 15.67938569 -12 13 C-12.68839635 6.00130378 -12.68839635 6.00130378 -9.9375 2 C-6.22192774 -0.52975133 -4.4117517 -0.7878128 0 0 Z " fill="#F4F4F4" transform="translate(451,127)"/>
<path d="M0 0 C3.5625 1.625 3.5625 1.625 6 4 C6.875 7.25 6.875 7.25 7 10 C4.03 10 1.06 10 -2 10 C-2 9.01 -2 8.02 -2 7 C-3.65 7 -5.3 7 -7 7 C-7 8.32 -7 9.64 -7 11 C-5.07977297 12.77409808 -5.07977297 12.77409808 -3 14 C-4.66666667 15.66666667 -6.33333333 17.33333333 -8 19 C-11.11594739 18.1690807 -13.45562935 17.48993358 -15.875 15.3125 C-17.51050171 11.95063538 -17.51803057 9.69096778 -17 6 C-11.9061575 -0.1662304 -7.69700579 -0.83688731 0 0 Z " fill="#0F0F0F" transform="translate(296,120)"/>
<path d="M0 0 C0.69488525 -0.00397797 1.38977051 -0.00795593 2.10571289 -0.01205444 C2.8966333 -0.02781525 3.68755371 -0.04357605 4.50244141 -0.05981445 C5.77752563 -0.04463272 5.77752563 -0.04463272 7.07836914 -0.02914429 C7.95485107 -0.03392792 8.83133301 -0.03871155 9.734375 -0.04364014 C11.5870137 -0.04704178 13.43971221 -0.03782072 15.29223633 -0.01693726 C18.13116035 0.00982668 20.96613087 -0.01667379 23.80493164 -0.04867554 C25.60441955 -0.04537148 27.403905 -0.03896534 29.20336914 -0.02914429 C30.05342529 -0.03926544 30.90348145 -0.0493866 31.77929688 -0.05981445 C32.57021729 -0.04405365 33.3611377 -0.02829285 34.17602539 -0.01205444 C35.21835327 -0.00608749 35.21835327 -0.00608749 36.28173828 0 C38.14086914 0.63491821 38.14086914 0.63491821 41.14086914 5.63491821 C25.96086914 5.63491821 10.78086914 5.63491821 -4.85913086 5.63491821 C-1.85913086 0.63491821 -1.85913086 0.63491821 0 0 Z " fill="#080808" transform="translate(118.859130859375,73.36508178710938)"/>
<path d="M0 0 C3.49186021 -0.20145347 6.19917389 -0.34907805 9.4375 1.0625 C11 3 11 3 11.5 6.5 C11 10 11 10 9.4375 11.9375 C6.19917389 13.34907805 3.49186021 13.20145347 0 13 C0 8.71 0 4.42 0 0 Z " fill="#EEEEEE" transform="translate(295,168)"/>
<path d="M0 0 C7.26 0 14.52 0 22 0 C22.66 1.65 23.32 3.3 24 5 C15.42 5 6.84 5 -2 5 C-1.34 3.35 -0.68 1.7 0 0 Z " fill="#080808" transform="translate(126,60)"/>
<path d="M0 0 C2.9375 0.1875 2.9375 0.1875 3.9375 1.1875 C4.0620486 2.82980364 4.11318524 4.47802276 4.125 6.125 C4.13917969 7.02089844 4.15335937 7.91679687 4.16796875 8.83984375 C3.9375 11.1875 3.9375 11.1875 1.9375 13.1875 C-0.6875 13.3125 -0.6875 13.3125 -3.0625 13.1875 C-5.38867985 9.55284398 -5.37654687 6.42713281 -5.0625 2.1875 C-3.0625 0.1875 -3.0625 0.1875 0 0 Z " fill="#E8E8E8" transform="translate(342.0625,167.8125)"/>
<path d="M0 0 C0.598125 0.226875 1.19625 0.45375 1.8125 0.6875 C1.8125 1.6775 1.8125 2.6675 1.8125 3.6875 C0.4925 3.3575 -0.8275 3.0275 -2.1875 2.6875 C-2.8475 3.6775 -3.5075 4.6675 -4.1875 5.6875 C-3.23875 5.48125 -2.29 5.275 -1.3125 5.0625 C0.234375 4.876875 0.234375 4.876875 1.8125 4.6875 C3.8125 6.6875 3.8125 6.6875 4.0625 9.1875 C3.8125 11.6875 3.8125 11.6875 1.8125 13.6875 C-0.6875 13.9375 -0.6875 13.9375 -3.1875 13.6875 C-5.60236943 11.27263057 -5.4836925 10.56042211 -5.5 7.25 C-5.51675781 6.46753906 -5.53351563 5.68507812 -5.55078125 4.87890625 C-4.9885986 1.48767542 -3.55976185 -0.50853741 0 0 Z " fill="#323232" transform="translate(374.1875,167.3125)"/>
<path d="M0 0 C3.49186021 -0.20145347 6.19917389 -0.34907805 9.4375 1.0625 C11 3 11 3 11.5 6.5 C11 10 11 10 9.4375 11.9375 C6.19917389 13.34907805 3.49186021 13.20145347 0 13 C0 8.71 0 4.42 0 0 Z M2 2 C2 5.3 2 8.6 2 12 C5.81813447 11.72459296 5.81813447 11.72459296 9 10 C9.16666667 6.5 9.16666667 6.5 9 3 C7.87465895 1.64381501 7.87465895 1.64381501 4.9375 1.9375 C3.968125 1.958125 2.99875 1.97875 2 2 Z " fill="#363636" transform="translate(295,168)"/>
<path d="M0 0 C0.33 0.33 0.66 0.66 1 1 C0.4 7.6 0.4 7.6 -2 10 C-0.68 10.33 0.64 10.66 2 11 C2 11.66 2 12.32 2 13 C-0.97 13 -3.94 13 -7 13 C-5 9 -5 9 -3.4375 7.5625 C-1.54736879 5.50800956 -1.3675753 3.72005723 -1 1 C-2.32 1 -3.64 1 -5 1 C-5 1.99 -5 2.98 -5 4 C-5.66 4 -6.32 4 -7 4 C-6.625 2.0625 -6.625 2.0625 -6 0 C-3.49749232 -1.25125384 -2.59701335 -0.83774624 0 0 Z " fill="#404040" transform="translate(329,168)"/>
<path d="M0 0 C1.67542976 0.28604898 3.34385343 0.61781233 5 1 C5.75 3.1875 5.75 3.1875 6 6 C4.0625 8.8125 4.0625 8.8125 2 11 C3.32 11.33 4.64 11.66 6 12 C6 12.66 6 13.32 6 14 C3.03 14 0.06 14 -3 14 C-3 13.34 -3 12.68 -3 12 C-2.030625 11.236875 -1.06125 10.47375 -0.0625 9.6875 C2.34232248 7.78627564 2.92787802 7.23182065 3.875 4.1875 C3.91625 3.465625 3.9575 2.74375 4 2 C2.02463255 2.34786708 2.02463255 2.34786708 0 3 C-0.33 3.66 -0.66 4.32 -1 5 C-1.66 5 -2.32 5 -3 5 C-1.125 1.125 -1.125 1.125 0 0 Z " fill="#393939" transform="translate(356,167)"/>
<path d="M0 0 C2.9375 0.1875 2.9375 0.1875 3.9375 1.1875 C4.0620486 2.82980364 4.11318524 4.47802276 4.125 6.125 C4.13917969 7.02089844 4.15335937 7.91679687 4.16796875 8.83984375 C3.9375 11.1875 3.9375 11.1875 1.9375 13.1875 C-0.6875 13.3125 -0.6875 13.3125 -3.0625 13.1875 C-5.38867985 9.55284398 -5.37654687 6.42713281 -5.0625 2.1875 C-3.0625 0.1875 -3.0625 0.1875 0 0 Z M-2.0625 1.1875 C-3.29517348 2.19586062 -3.29517348 2.19586062 -3.16015625 4.25390625 C-3.14855469 5.07761719 -3.13695312 5.90132812 -3.125 6.75 C-3.11597656 7.57628906 -3.10695313 8.40257812 -3.09765625 9.25390625 C-3.08605469 9.89199219 -3.07445312 10.53007812 -3.0625 11.1875 C-1.39638095 11.230221 0.27132885 11.22813832 1.9375 11.1875 C3.33037806 10.01713695 3.33037806 10.01713695 3.125 6.75 C3.33314928 3.13717279 3.33314928 3.13717279 0.9375 1.1875 C-0.0525 1.1875 -1.0425 1.1875 -2.0625 1.1875 Z " fill="#3A3A3A" transform="translate(342.0625,167.8125)"/>
<path d="M0 0 C2.31 0 4.62 0 7 0 C7 0.66 7 1.32 7 2 C5.35 2 3.7 2 2 2 C2 3.32 2 4.64 2 6 C3.65 6 5.3 6 7 6 C7 6.33 7 6.66 7 7 C5.35 7 3.7 7 2 7 C2 8.65 2 10.3 2 12 C3.65 12 5.3 12 7 12 C7 12.33 7 12.66 7 13 C4.69 13 2.38 13 0 13 C0 8.71 0 4.42 0 0 Z " fill="#343434" transform="translate(251,168)"/>
<path d="M0 0 C0.33 0.99 0.66 1.98 1 3 C-0.65 2.67 -2.3 2.34 -4 2 C-4 2.99 -4 3.98 -4 5 C-1.525 5.99 -1.525 5.99 1 7 C1.042721 8.66611905 1.04063832 10.33382885 1 12 C0 13 0 13 -2.4375 13.25 C-3.283125 13.1675 -4.12875 13.085 -5 13 C-5.66 12.01 -6.32 11.02 -7 10 C-4.03 10.495 -4.03 10.495 -1 11 C-0.67 10.01 -0.34 9.02 0 8 C-1.98 7.34 -3.96 6.68 -6 6 C-6.33 4.35 -6.66 2.7 -7 1 C-4.53721199 -0.231394 -2.7204945 -0.07159196 0 0 Z " fill="#232323" transform="translate(272,168)"/>
<path d="M0 0 C2.97 0 5.94 0 9 0 C9 0.66 9 1.32 9 2 C7.68 2 6.36 2 5 2 C5 5.63 5 9.26 5 13 C4.34 13 3.68 13 3 13 C3 9.37 3 5.74 3 2 C2.01 2 1.02 2 0 2 C0 1.34 0 0.68 0 0 Z " fill="#454545" transform="translate(280,168)"/>
<path d="M0 0 C3 1 3 1 5 4 C5 4.99 5 5.98 5 7 C2.36 7 -0.28 7 -3 7 C-2.38722388 4.03824877 -1.74627478 2.61941217 0 0 Z " fill="#252525" transform="translate(136,45)"/>
<path d="M0 0 C1.65 0 3.3 0 5 0 C5 1.65 5 3.3 5 5 C3.125 5.625 3.125 5.625 1 6 C0.34 5.34 -0.32 4.68 -1 4 C-0.625 1.875 -0.625 1.875 0 0 Z " fill="#DEDEDE" transform="translate(371,174)"/>
<path d="M0 0 C1.99954746 -0.04254356 4.00041636 -0.04080783 6 0 C7 1 7 1 7.09765625 3.06640625 C7.08605469 3.89011719 7.07445312 4.71382812 7.0625 5.5625 C7.05347656 6.38878906 7.04445313 7.21507812 7.03515625 8.06640625 C7.02355469 8.70449219 7.01195312 9.34257812 7 10 C6.67 10 6.34 10 6 10 C5.67 7.69 5.34 5.38 5 3 C3.10820797 2.3185177 3.10820797 2.3185177 1 2 C0.34 2.66 -0.32 3.32 -1 4 C-0.67 2.68 -0.34 1.36 0 0 Z " fill="#1E1E1E" transform="translate(339,168)"/>
<path d="M0 0 C1.65 0 3.3 0 5 0 C5 1.32 5 2.64 5 4 C3.35 4 1.7 4 0 4 C0 2.68 0 1.36 0 0 Z " fill="#EFEFEF" transform="translate(253,170)"/>
<path d="M0 0 C1.32 0.33 2.64 0.66 4 1 C4 1.99 4 2.98 4 4 C2.02 4 0.04 4 -2 4 C-1.34 2.68 -0.68 1.36 0 0 Z " fill="#ECECEC" transform="translate(372,169)"/>
</svg>
