<?xml version="1.0" encoding="UTF-8" standalone="yes"?>
<svg version="1.2" width="100.000000pt" height="100.000000pt" viewBox="0 0 100.000000 100.000000" preserveAspectRatio="xMidYMid meet" baseProfile="tiny-ps" xmlns="http://www.w3.org/2000/svg">
  <title>bimi-svg-tiny-12-ps</title>
  <g transform="translate(0.000000,100.000000) scale(0.100000,-0.100000)" fill="#000000" stroke="none">
    <path d="M486 834 c-9 -23 -8 -24 14 -24 11 0 20 2 20 4 0 12 -13 36 -20 36&#xA;-4 0 -11 -7 -14 -16z"/>
    <path d="M435 760 c-4 -6 20 -10 65 -10 45 0 69 4 65 10 -3 6 -33 10 -65 10&#xA;-32 0 -62 -4 -65 -10z"/>
    <path d="M403 703 c-37 -14 -1 -23 97 -23 101 0 134 9 94 24 -19 7 -173 7&#xA;-191 -1z"/>
    <path d="M350 625 c-11 -13 7 -15 150 -15 143 0 161 2 150 15 -10 12 -40 15&#xA;-150 15 -110 0 -140 -3 -150 -15z"/>
    <path d="M402 572 c-64 -2 -94 -7 -102 -17 -11 -13 -1 -15 74 -15 47 0 86 -4&#xA;86 -8 0 -23 -30 -32 -111 -32 -65 0 -90 -4 -99 -15 -11 -13 -2 -15 74 -15 47&#xA;0 86 -3 86 -7 -1 -26 -22 -32 -110 -35 -64 -2 -95 -7 -98 -15 -3 -10 18 -13&#xA;82 -13 84 0 86 -1 74 -20 -11 -18 -24 -20 -104 -20 -72 0 -93 -3 -98 -15 -4&#xA;-13 8 -15 80 -15 82 0 84 -1 74 -20 -9 -18 -21 -20 -99 -20 -67 0 -92 -4 -101&#xA;-15 -11 -13 -2 -15 74 -15 47 0 86 -3 86 -6 0 -4 -15 -28 -34 -54 -19 -27 -32&#xA;-51 -29 -54 9 -8 568 -8 576 1 4 3 -9 28 -28 55 -19 26 -35 50 -35 53 0 3 41&#xA;5 91 5 80 0 90 2 79 15 -9 11 -35 15 -106 15 -83 0 -94 2 -104 20 -10 19 -8&#xA;20 79 20 76 0 89 2 85 15 -5 12 -26 15 -103 15 -85 0 -98 2 -109 20 -12 19&#xA;-10 20 79 20 68 0 90 3 87 13 -3 8 -34 13 -98 15 -87 3 -120 12 -120 33 0 5&#xA;41 9 91 9 80 0 90 2 79 15 -9 11 -35 15 -104 15 -86 0 -116 8 -116 32 0 4 41&#xA;8 91 8 78 0 90 2 80 14 -13 16 -136 23 -299 18z"/>
  </g>
</svg>